<?xml version="1.0" encoding="utf-8"?>
<!-- Generator: Adobe Illustrator 24.3.0, SVG Export Plug-In . SVG Version: 6.00 Build 0)  -->
<svg version="1.1" id="Layer_1" xmlns="http://www.w3.org/2000/svg" xmlns:xlink="http://www.w3.org/1999/xlink" x="0px" y="0px"
	 viewBox="0 0 200 200" enable-background="new 0 0 200 200" xml:space="preserve">
<path fill="#282828" d="M119.032,145.698h-37.4c-6.2,0-11.3-5.1-11.3-11.3v-50.7c0-1.1,0.9-2,2-2h56c1.1,0,2,0.9,2,2v50.7
	C130.332,140.598,125.232,145.698,119.032,145.698z M74.332,85.698v48.7c0,4,3.3,7.3,7.3,7.3h37.3c4,0,7.3-3.3,7.3-7.3v-48.7H74.332
	z"/>
<path fill="#282828" d="M138.332,73.598h-76c-1.1,0-2-0.9-2-2s0.9-2,2-2h76c1.1,0,2,0.9,2,2S139.432,73.598,138.332,73.598z"/>
<path fill="#282828" d="M138.332,85.598h-76c-1.1,0-2-0.9-2-2s0.9-2,2-2h76c1.1,0,2,0.9,2,2S139.432,85.598,138.332,85.598z"/>
<path fill="#282828" d="M112.332,73.698h-24c-1.1,0-2-0.9-2-2v-6c0-6.6,5.4-12,12-12h4c6.6,0,12,5.4,12,12v6
	C114.332,72.798,113.432,73.698,112.332,73.698z M90.332,69.698h20v-4c0-4.4-3.6-8-8-8h-4c-4.4,0-8,3.6-8,8V69.698z"/>
<path fill="#282828" d="M88.732,131.698c-1.1,0-2-0.9-2-2v-32c0-1.1,0.9-2,2-2c1.1,0,2,0.9,2,2v32
	C90.732,130.798,89.832,131.698,88.732,131.698z"/>
<path fill="#282828" d="M100.732,131.698c-1.1,0-2-0.9-2-2v-32c0-1.1,0.9-2,2-2c1.1,0,2,0.9,2,2v32
	C102.732,130.798,101.832,131.698,100.732,131.698z"/>
<path fill="#282828" d="M112.732,131.698c-1.1,0-2-0.9-2-2v-32c0-1.1,0.9-2,2-2c1.1,0,2,0.9,2,2v32
	C114.732,130.798,113.832,131.698,112.732,131.698z"/>
</svg>
